<?xml version="1.0" standalone="no"?>
<!DOCTYPE svg PUBLIC "-//W3C//DTD SVG 20010904//EN"
 "http://www.w3.org/TR/2001/REC-SVG-20010904/DTD/svg10.dtd">
<svg version="1.0" xmlns="http://www.w3.org/2000/svg"
 width="700.000000pt" height="700.000000pt" viewBox="0 0 700.000000 700.000000"
 preserveAspectRatio="xMidYMid meet">
<metadata>
Created by potrace 1.14, written by Peter Selinger 2001-2017
</metadata>
<g transform="translate(0.000000,700.000000) scale(0.100000,-0.100000)"
fill="#000000" stroke="none">
<path d="M3210 6989 c-36 -3 -96 -10 -135 -14 -38 -4 -79 -9 -90 -11 -11 -3
-36 -7 -55 -10 -19 -3 -48 -7 -65 -10 -16 -3 -37 -7 -45 -9 -8 -2 -26 -6 -40
-9 -137 -25 -399 -104 -584 -177 -177 -70 -427 -200 -472 -245 -68 -68 -87
-163 -59 -298 2 -12 6 -39 9 -61 19 -149 80 -420 141 -620 140 -461 398 -956
699 -1340 123 -157 183 -223 435 -477 l206 -208 -201 -202 c-277 -280 -341
-351 -486 -545 -258 -344 -495 -789 -613 -1152 -20 -63 -16 -150 9 -200 60
-115 203 -163 322 -107 71 33 105 80 154 214 138 375 341 733 597 1052 59 74
210 239 335 365 l227 230 195 -195 c108 -107 235 -242 283 -298 49 -57 93
-109 98 -115 19 -22 101 -131 133 -179 l33 -47 -404 0 c-223 1 -415 -2 -428
-6 -107 -33 -152 -173 -82 -255 55 -66 36 -64 593 -65 278 0 511 -4 519 -9 18
-11 125 -237 184 -386 67 -170 65 -160 20 -161 -21 0 -396 0 -833 0 -437 0
-817 -2 -844 -5 -122 -15 -184 -159 -108 -253 60 -75 -8 -70 1006 -70 500 0
912 -3 916 -8 4 -4 17 -62 29 -128 12 -66 24 -132 27 -147 5 -23 0 -29 -48
-51 -214 -101 -541 -208 -708 -233 -19 -2 -44 -7 -56 -9 -12 -3 -39 -7 -60
-10 -21 -3 -49 -8 -60 -10 -124 -27 -656 -27 -804 0 -14 3 -41 7 -60 10 -425
67 -823 219 -1185 454 -338 218 -682 568 -902 916 -97 154 -216 395 -274 555
-58 159 -115 360 -134 475 -3 17 -10 53 -15 80 -10 58 -18 113 -27 210 -10 96
-10 470 0 580 8 84 41 299 53 337 3 10 7 30 10 45 3 16 8 37 11 48 8 25 11 33
17 66 12 53 89 276 128 369 48 113 122 264 166 338 18 29 32 55 32 57 0 9 190
284 215 311 5 6 30 35 55 65 25 29 70 81 100 115 35 39 61 78 71 110 53 166
-72 329 -246 320 -74 -4 -123 -35 -213 -133 -379 -412 -678 -980 -807 -1533
-9 -36 -44 -219 -49 -255 -4 -22 -8 -53 -11 -70 -24 -154 -30 -257 -30 -495 1
-194 8 -334 20 -398 1 -9 6 -44 9 -77 4 -33 9 -67 11 -75 3 -8 7 -31 9 -50 10
-76 60 -282 103 -420 72 -234 174 -473 293 -685 198 -356 492 -709 805 -969
90 -74 90 -74 160 -126 33 -25 61 -48 63 -52 2 -5 8 -8 13 -8 6 0 38 -19 72
-43 104 -72 229 -144 386 -223 82 -41 152 -74 155 -74 4 0 25 -9 49 -19 217
-97 621 -208 857 -237 30 -3 66 -8 80 -10 186 -26 650 -25 840 2 168 25 307
51 425 81 141 36 386 116 480 157 27 13 70 31 95 41 78 33 294 146 326 170 52
40 88 111 90 180 1 33 -1 80 -6 105 -5 25 -11 70 -14 100 -11 100 -74 387
-121 547 -166 568 -450 1095 -833 1548 -42 50 -175 190 -297 313 -121 123
-220 227 -220 232 0 5 93 103 206 217 193 195 314 327 384 417 17 21 35 44 40
50 32 33 174 239 248 356 128 205 208 359 332 645 67 154 90 232 90 305 -1 83
-14 117 -67 170 -72 72 -179 90 -274 46 -71 -33 -105 -80 -155 -214 -149 -407
-374 -793 -648 -1116 -52 -61 -188 -205 -303 -321 l-208 -210 -208 210 c-211
214 -243 248 -322 345 -25 30 -47 57 -50 60 -10 9 -95 123 -128 172 l-32 46
405 1 c223 0 415 3 428 7 107 33 150 171 80 255 -55 65 -36 63 -600 64 -281 0
-513 2 -516 5 -17 20 -124 250 -170 365 -72 182 -73 185 -50 186 10 0 395 1
857 1 461 0 853 4 870 9 39 11 80 52 101 102 32 76 -15 175 -98 206 -18 7
-330 11 -934 11 -658 0 -909 3 -914 11 -6 11 -32 131 -44 209 -3 19 -8 47 -11
62 -5 24 -1 29 43 49 26 11 71 31 98 44 121 54 378 140 485 161 14 3 50 11 80
19 30 7 75 16 100 20 25 4 52 9 61 10 9 2 40 6 70 10 30 4 68 9 84 12 60 9
512 11 585 3 41 -5 98 -12 125 -15 445 -51 965 -257 1350 -533 334 -240 627
-556 836 -902 166 -275 317 -664 369 -948 5 -31 12 -68 15 -82 5 -27 14 -81
20 -132 28 -211 28 -577 0 -778 -3 -26 -17 -114 -21 -135 -2 -11 -7 -36 -10
-55 -39 -222 -147 -538 -267 -776 -106 -210 -297 -495 -427 -634 -23 -25 -56
-63 -74 -85 -135 -164 -26 -399 184 -399 97 1 131 21 245 149 11 12 34 38 52
57 114 129 299 398 403 588 200 367 345 805 395 1190 9 75 16 123 21 155 9 55
11 529 4 610 -16 162 -21 210 -25 225 -2 8 -7 35 -10 60 -19 130 -77 373 -125
520 -227 686 -657 1290 -1225 1716 -89 67 -213 154 -219 154 -2 0 -42 24 -89
54 -170 107 -475 246 -692 317 -168 55 -420 117 -545 134 -19 3 -46 7 -59 10
-30 6 -103 14 -216 24 -109 10 -485 10 -575 0z"/>
</g>
</svg>
